<svg width="20" height="10" viewBox="0 0 20 10" fill="none" xmlns="http://www.w3.org/2000/svg">
<path fill-rule="evenodd" clip-rule="evenodd" d="M5.27983 0.71995C5.42028 0.860576 5.49917 1.0512 5.49917 1.24995C5.49917 1.4487 5.42028 1.63932 5.27983 1.77995L2.80983 4.24995H18.9998C19.1987 4.24995 19.3895 4.32897 19.5302 4.46962C19.6708 4.61027 19.7498 4.80104 19.7498 4.99995C19.7498 5.19886 19.6708 5.38963 19.5302 5.53028C19.3895 5.67093 19.1987 5.74995 18.9998 5.74995H2.80983L5.27983 8.21995C5.35352 8.28861 5.41262 8.37141 5.45361 8.46341C5.4946 8.55541 5.51664 8.65473 5.51842 8.75543C5.5202 8.85613 5.50167 8.95616 5.46395 9.04955C5.42623 9.14294 5.37009 9.22777 5.29887 9.29899C5.22765 9.37021 5.14281 9.42635 5.04943 9.46407C4.95604 9.50179 4.85601 9.52032 4.75531 9.51854C4.6546 9.51676 4.55529 9.49472 4.46329 9.45373C4.37129 9.41274 4.28849 9.35364 4.21983 9.27995L0.469828 5.52995C0.329378 5.38932 0.250488 5.1987 0.250488 4.99995C0.250488 4.8012 0.329378 4.61058 0.469828 4.46995L4.21983 0.71995C4.36045 0.5795 4.55108 0.50061 4.74983 0.50061C4.94858 0.50061 5.1392 0.5795 5.27983 0.71995Z" fill="#2F2F2F"/>
</svg>
